<svg version="1" xmlns="http://www.w3.org/2000/svg" width="215" height="54" viewBox="0 0 2150 540"><path d="M778 519c-37-19-50-39-25-39 6 0 22-8 35-18l22-17-74-40c-83-44-71-46-189 22l-49 27-84-44c-67-36-87-43-101-34-10 6-47 27-83 46l-65 36-82-46-83-47V40l40-20C61 9 83 0 87 0s6 27 5 60c-2 33 0 60 5 60 4 0 22-9 39-19l31-19 69 40c91 53 94 54 94 30 0-13 15-29 44-46 25-14 48-26 51-26 4 0 4 53 0 117l-6 118 41 17c41 17 43 17 81-5l39-22-6-112c-4-62-4-113-1-113s43 22 89 48l83 48 1 68 1 68 42 19c41 18 42 18 76-2s35-23 35-85c0-60 2-64 29-79 16-8 36-22 45-30 15-15 16-2 16 152v168l-77 43c-42 23-81 42-87 42-6-1-28-10-48-21zM207 333c42-17 43-19 43-64 0-42-2-47-40-68l-39-22-41 23c-36 21-40 27-40 65 0 36 4 44 33 61 40 25 34 25 84 5zm942 169c-107-60-100-43-97-221l3-155 40-23c22-12 44-23 49-23s7 72 5 162l-4 163 35 19c35 18 35 18 74-5l39-23-31-15-32-15v-95c0-94 1-96 28-111 15-9 52-30 82-47l56-32 74 44c41 24 81 44 88 45 7 0 48-20 91-45l78-45 82 46 81 46v193l-77 43c-42 23-81 42-87 42s-45-20-86-44l-75-44-65 35c-36 20-74 42-84 49-16 11-25 9-63-12l-43-26v44c0 42-2 45-45 66-25 12-47 22-48 22-1-1-32-18-68-38zm294-167c32-22 37-31 37-64 0-36-4-41-42-61-41-21-42-21-80-3-36 17-38 21-38 64 0 42 3 47 38 67 20 12 39 22 42 22s22-11 43-25zm330 0c35-17 37-22 37-64 0-45-1-46-44-64-41-17-45-17-80-1-34 17-36 21-36 63 0 43 3 48 38 67 20 12 39 21 42 20s22-10 43-21zm170 182l-43-21V349c0-211 4-230 51-257 21-12 41-22 45-22s5 83 2 185-4 185-3 185c2 0 20-10 40-21 35-21 37-21 76-4 38 18 39 19 39 72 0 29-2 53-4 53s-35-18-72-40l-69-40-3 40c-2 22-6 40-10 39-4 0-26-10-49-22z" fill="#010000"/><path d="M1992 393c3-45 6-49 45-69 23-12 58-31 78-43l36-21-3 52-3 52-75 38c-41 21-76 38-78 38s-2-21 0-47zm-634-55c-36-21-38-25-38-70v-49l39 23c36 21 40 27 43 70 2 27 1 48-2 48s-22-10-42-22zm330-2c-36-20-38-24-38-69v-47l40 20c38 19 40 23 40 66 0 32 3 43 12 38 7-4 8-3 4 4-9 15-13 14-58-12zm115-66c0-30 2-43 4-27 2 15 2 39 0 55-2 15-4 2-4-28zM90 268c0-39 3-45 40-65 21-13 40-23 42-23s1 22 0 48c-3 41-8 51-32 65-42 25-50 21-50-25zm438 26c-25-13-28-20-28-64 0-28 3-50 8-50 4 0 22 9 40 20 28 18 32 25 32 65 0 49-8 54-52 29zm330 0c-25-13-28-20-28-64 0-28 2-50 5-50 4 0 19 7 35 15 27 14 30 20 30 65 0 55-2 56-42 34zm612-26c-3-26-1-43 3-39 5 5 7 26 5 47l-3 39-5-47zM204 204c-18-14-18-15 4-4 12 6 22 13 22 15 0 8-5 6-26-11zm504-48c-21-11-38-24-38-27s18-15 40-28l40-22v50c0 28-1 51-2 50-2-1-20-11-40-23zm192-26V80l40 20c22 11 40 24 40 28 0 5-18 18-40 31l-40 22v-51z" fill="#26201e"/><path d="M1178 418c-35-20-38-26-38-65 0-24 2-43 5-43s24 9 45 20c38 19 40 23 40 65 0 25-3 45-7 45-5 0-25-10-45-22zm222-111c0-36 5-48 25-61 37-24 45-20 45 27 0 45 0 44-62 75-5 2-8-16-8-41zm330-3c0-39 4-47 33-64l32-20 3 46c3 47-9 66-50 77-15 4-18-2-18-39zM198 294c-24-13-28-21-28-59 0-25 2-45 4-45 3 0 21 9 40 21 32 18 36 26 36 60 0 43-9 47-52 23zm222-31c0-45 2-49 40-71l40-23v53c0 49-3 54-31 71-44 25-49 22-49-30zm330-1c0-46 2-49 40-71l40-22v54c0 51-1 54-35 70-20 9-38 17-40 17-3 0-5-22-5-48zm1310-22c0-38 2-70 5-70s24 9 45 20c55 28 55 60 0 95-22 14-42 25-45 25s-5-31-5-70z" fill="#4e4543"/></svg>